name Walk7.mot
datacolumns 19
datarows 17
range 2.18000000 2.26000000
endheader

                time	   L_ground_force_vx	   L_ground_force_vy	   L_ground_force_vz	   L_ground_force_px	   L_ground_force_py	   L_ground_force_pz	   R_ground_force_vx	   R_ground_force_vy	   R_ground_force_vz	   R_ground_force_px	   R_ground_force_py	   R_ground_force_pz	   L_ground_torque_x	   L_ground_torque_y	   L_ground_torque_z	   R_ground_torque_x	   R_ground_torque_y	   R_ground_torque_z	
          2.18000000	          0.00000049	          0.00000138	         -0.00000006	          0.00000000	          0.00000000	          0.00000000	         39.36065736	        175.01565901	          6.82390802	          0.17698708	          0.00000000	          0.06424034	          0.00000000	         -0.00000000	          0.00000000	          0.00000000	        -10.20262141	          0.00000000	
          2.18500000	          0.00000041	          0.00000124	         -0.00000006	         -0.00000000	          0.00000000	         -0.00000000	         30.87307514	        136.59495755	          6.98781480	          0.17115834	          0.00000000	          0.06153217	          0.00000000	         -0.00000000	          0.00000000	          0.00000000	         -8.50386317	          0.00000000	
          2.19000000	          0.00000033	          0.00000105	         -0.00000005	         -0.00000000	          0.00000000	         -0.00000000	         23.05133387	        102.89892125	          6.59865383	          0.16249274	          0.00000000	          0.05793284	          0.00000000	         -0.00000000	          0.00000000	          0.00000000	         -6.83869441	          0.00000000	
          2.19500000	          0.00000026	          0.00000085	         -0.00000005	         -0.00000000	          0.00000000	         -0.00000000	         16.15910856	         74.20672411	          5.82222433	          0.15063123	          0.00000000	          0.05332891	          0.00000000	         -0.00000000	          0.00000000	          0.00000000	         -5.27563652	          0.00000000	
          2.20000000	          0.00000019	          0.00000065	         -0.00000004	         -0.00000000	          0.00000000	         -0.00000000	         10.38093962	         50.50064505	          4.83510709	          0.13545609	          0.00000000	          0.04768495	          0.00000000	          0.00000000	          0.00000000	          0.00000000	         -3.87275781	          0.00000000	
          2.20500000	          0.00000013	          0.00000047	         -0.00000003	         -0.00000000	          0.00000000	         -0.00000000	          5.79987681	         31.54026377	          3.79606900	          0.11725128	          0.00000000	          0.04109479	          0.00000000	          0.00000000	          0.00000000	          0.00000000	         -2.67060637	          0.00000000	
          2.21000000	          0.00000008	          0.00000032	         -0.00000002	         -0.00000000	          0.00000000	         -0.00000000	          2.38635243	         16.94308617	          2.82158004	          0.09695645	          0.00000000	          0.03385918	          0.00000000	          0.00000000	          0.00000000	          0.00000000	         -1.68868951	          0.00000000	
          2.21500000	          0.00000004	          0.00000020	         -0.00000002	         -0.00000000	          0.00000000	         -0.00000000	          0.00754247	          6.24521054	          1.97300275	          0.07631628	          0.00000000	          0.02655748	          0.00000000	          0.00000000	          0.00000000	          0.00000000	         -0.92543627	          0.00000000	
          2.22000000	          0.00000001	          0.00000011	         -0.00000001	         -0.00000000	          0.00000000	         -0.00000000	         -1.51853879	         -1.10905051	          1.27278591	          0.05704445	          0.00000000	          0.01977467	          0.00000000	          0.00000000	          0.00000000	          0.00000000	         -0.36278593	          0.00000000	
          2.22500000	         -0.00000000	          0.00000004	         -0.00000001	         -0.00000000	          0.00000000	         -0.00000000	         -2.37708708	         -5.73748317	          0.72308844	          0.04017427	          0.00000000	          0.01386104	          0.00000000	          0.00000000	          0.00000000	          0.00000000	          0.02672281	          0.00000000	
          2.23000000	         -0.00000002	         -0.00000001	         -0.00000000	         -0.00000000	          0.00000000	         -0.00000000	         -2.73965862	         -8.25184183	          0.31339055	          0.02617845	          0.00000000	          0.00897251	          0.00000000	          0.00000000	          0.00000000	          0.00000000	          0.27439377	          0.00000000	
          2.23500000	         -0.00000002	         -0.00000004	         -0.00000000	         -0.00000000	          0.00000000	         -0.00000000	         -2.75549486	         -9.21163042	          0.02587382	          0.01513281	          0.00000000	          0.00512797	          0.00000000	          0.00000000	          0.00000000	          0.00000000	          0.41151913	          0.00000000	
          2.24000000	         -0.00000002	         -0.00000006	          0.00000000	         -0.00000000	          0.00000000	         -0.00000000	         -2.54772400	         -9.09859566	         -0.16055139	          0.00685262	          0.00000000	          0.00225698	          0.00000000	          0.00000000	          0.00000000	          0.00000000	          0.46690878	          0.00000000	
          2.24500000	         -0.00000002	         -0.00000006	          0.00000000	         -0.00000000	          0.00000000	         -0.00000000	         -2.21299042	         -8.30651976	         -0.26740459	          0.00100074	          0.00000000	          0.00023737	          0.00000000	          0.00000000	          0.00000000	          0.00000000	          0.46550225	          0.00000000	
          2.25000000	         -0.00000002	         -0.00000006	          0.00000000	         -0.00000000	          0.00000000	         -0.00000000	         -1.82331147	         -7.14163156	         -0.31477901	         -0.00283110	          0.00000000	         -0.00107654	          0.00000000	          0.00000000	          0.00000000	          0.00000000	          0.42778467	          0.00000000	
          2.25500000	         -0.00000002	         -0.00000005	          0.00000000	          0.00000000	          0.00000000	         -0.00000000	         -1.42921602	         -5.82979461	         -0.32026410	         -0.00506448	          0.00000000	         -0.00183398	          0.00000000	          0.00000000	          0.00000000	          0.00000000	          0.36976452	          0.00000000	
          2.26000000	         -0.00000001	         -0.00000005	          0.00000000	          0.00000000	          0.00000000	          0.00000000	         -1.06345653	         -4.52747274	         -0.29845256	         -0.00609617	          0.00000000	         -0.00217467	          0.00000000	          0.00000000	          0.00000000	          0.00000000	          0.30331342	          0.00000000	
